<svg width="17" height="22" viewBox="0 0 17 22" fill="none" xmlns="http://www.w3.org/2000/svg">
<path d="M15.2466 8.52368C15.2466 12.9381 10.6991 18.4245 8.93202 20.3898C8.55812 20.8057 7.92479 20.8057 7.5509 20.3898C5.78382 18.4245 1.23633 12.9381 1.23633 8.52368C1.23633 4.3206 4.63055 1.51855 8.24146 1.51855C11.9775 1.51855 15.2466 4.3206 15.2466 8.52368Z" stroke="#F6DE6C" stroke-width="2"/>
<path d="M11.2273 8.52366C11.2273 10.1728 9.89035 11.5097 8.24119 11.5097C6.59203 11.5097 5.25513 10.1728 5.25513 8.52366C5.25513 6.87451 6.59203 5.5376 8.24119 5.5376C9.89035 5.5376 11.2273 6.87451 11.2273 8.52366Z" stroke="#F6DE6C" stroke-width="1.5"/>
</svg>
