<svg width="20" height="16" viewBox="0 0 20 16" fill="none" xmlns="http://www.w3.org/2000/svg">
<path d="M0.53152 13.4587V2.25874H4.72352C5.67285 2.25874 6.48885 2.41341 7.17152 2.72274C7.85419 3.02141 8.37685 3.45874 8.73952 4.03474C9.11285 4.60007 9.29952 5.28807 9.29952 6.09874C9.29952 6.88807 9.11285 7.57074 8.73952 8.14674C8.37685 8.71207 7.85419 9.14941 7.17152 9.45874C6.48885 9.75741 5.67285 9.90674 4.72352 9.90674H1.18752L1.71552 9.36274V13.4587H0.53152ZM8.17952 13.4587L5.29952 9.39474H6.57952L9.47552 13.4587H8.17952ZM1.71552 9.45874L1.18752 8.89874H4.69152C5.81152 8.89874 6.65952 8.65341 7.23552 8.16274C7.82219 7.67207 8.11552 6.98407 8.11552 6.09874C8.11552 5.20274 7.82219 4.50941 7.23552 4.01874C6.65952 3.52807 5.81152 3.28274 4.69152 3.28274H1.18752L1.71552 2.72274V9.45874ZM14.846 15.3787V0.338739H15.646V15.3787H14.846ZM15.182 13.5547C14.35 13.5547 13.55 13.4214 12.782 13.1547C12.0247 12.8774 11.438 12.5254 11.022 12.0987L11.486 11.1867C11.8807 11.5707 12.4087 11.8961 13.07 12.1627C13.742 12.4187 14.446 12.5467 15.182 12.5467C15.886 12.5467 16.4567 12.4614 16.894 12.2907C17.342 12.1094 17.6674 11.8694 17.87 11.5707C18.0834 11.2721 18.19 10.9414 18.19 10.5787C18.19 10.1414 18.062 9.78941 17.806 9.52274C17.5607 9.25607 17.2354 9.04807 16.83 8.89874C16.4247 8.73874 15.9767 8.60007 15.486 8.48274C14.9954 8.36541 14.5047 8.24274 14.014 8.11474C13.5234 7.97607 13.07 7.79474 12.654 7.57074C12.2487 7.34674 11.918 7.05341 11.662 6.69074C11.4167 6.31741 11.294 5.83207 11.294 5.23474C11.294 4.68007 11.438 4.17341 11.726 3.71474C12.0247 3.24541 12.478 2.87207 13.086 2.59474C13.694 2.30674 14.4727 2.16274 15.422 2.16274C16.0514 2.16274 16.6754 2.25341 17.294 2.43474C17.9127 2.60541 18.446 2.84541 18.894 3.15474L18.494 4.09874C18.014 3.77874 17.502 3.54407 16.958 3.39474C16.4247 3.24541 15.9074 3.17074 15.406 3.17074C14.734 3.17074 14.1794 3.26141 13.742 3.44274C13.3047 3.62407 12.9794 3.86941 12.766 4.17874C12.5634 4.47741 12.462 4.81874 12.462 5.20274C12.462 5.64007 12.5847 5.99207 12.83 6.25874C13.086 6.52541 13.4167 6.73341 13.822 6.88274C14.238 7.03207 14.6914 7.16541 15.182 7.28274C15.6727 7.40007 16.158 7.52807 16.638 7.66674C17.1287 7.80541 17.5767 7.98674 17.982 8.21074C18.398 8.42407 18.7287 8.71207 18.974 9.07474C19.23 9.43741 19.358 9.91207 19.358 10.4987C19.358 11.0427 19.2087 11.5494 18.91 12.0187C18.6114 12.4774 18.1527 12.8507 17.534 13.1387C16.926 13.4161 16.142 13.5547 15.182 13.5547Z" fill="#065C99"/>
</svg>
