<svg width="20" height="20" viewBox="0 0 20 20" fill="none" xmlns="http://www.w3.org/2000/svg">
<path d="M15.4871 12.5219L18.3216 15.3565C18.6975 15.7323 18.6975 16.3418 18.3216 16.7176C16.2894 18.7498 13.0722 18.9785 10.7731 17.2541L8.9641 15.8974C7.22057 14.5897 5.67175 13.0409 4.3641 11.2974L3.00737 9.4884C1.28302 7.18926 1.51166 3.97204 3.54383 1.93987C3.91971 1.56399 4.52913 1.56399 4.90501 1.93987L7.73954 4.77439C8.13006 5.16492 8.13006 5.79808 7.73954 6.18861L6.62237 7.30577C6.45107 7.47707 6.40861 7.73876 6.51695 7.95544C7.76953 10.4606 9.80086 12.4919 12.306 13.7445C12.5227 13.8529 12.7844 13.8104 12.9557 13.6391L14.0729 12.5219C14.4634 12.1314 15.0966 12.1314 15.4871 12.5219Z" stroke="#F6DE6C" stroke-width="2"/>
</svg>
