<svg width="20" height="20" viewBox="0 0 20 20" fill="none" xmlns="http://www.w3.org/2000/svg">
<path d="M15.5015 12.7832L18.336 15.6177C18.7119 15.9936 18.7119 16.603 18.336 16.9789C16.3038 19.011 13.0866 19.2397 10.7875 17.5153L8.97851 16.1586C7.23498 14.851 5.68615 13.3021 4.3785 11.5586L3.02178 9.74963C1.29742 7.45049 1.52606 4.23327 3.55823 2.2011C3.93411 1.82522 4.54353 1.82522 4.91941 2.2011L7.75394 5.03562C8.14446 5.42615 8.14446 6.05931 7.75394 6.44984L6.63678 7.567C6.46548 7.7383 6.42301 7.99999 6.53135 8.21667C7.78394 10.7218 9.81527 12.7532 12.3204 14.0058C12.5371 14.1141 12.7988 14.0716 12.9701 13.9003L14.0873 12.7832C14.4778 12.3926 15.111 12.3926 15.5015 12.7832Z" stroke="#065C99" stroke-width="2"/>
</svg>
