<svg width="65" height="65" viewBox="0 0 65 65" fill="none" xmlns="http://www.w3.org/2000/svg">
<path d="M32.4709 64.3251C50.1441 64.3251 64.4709 49.9982 64.4709 32.3251C64.4709 14.652 50.1441 0.325073 32.4709 0.325073C14.7978 0.325073 0.470947 14.652 0.470947 32.3251C0.470947 49.9982 14.7978 64.3251 32.4709 64.3251Z" fill="#25D366"/>
<path fill-rule="evenodd" clip-rule="evenodd" d="M32.5509 51.1951H32.543C29.3584 51.194 26.2292 50.395 23.4499 48.8791L13.3628 51.5251L16.0623 41.6649C14.3971 38.7791 13.5209 35.5058 13.5223 32.1521C13.5265 21.6607 22.0625 13.1251 32.5507 13.1251C37.641 13.1273 42.4185 15.1089 46.0111 18.7057C49.6036 22.3022 51.581 27.0829 51.579 32.1671C51.5748 42.6561 43.0421 51.1909 32.5509 51.1951ZM23.9173 45.4343L24.4948 45.777C26.923 47.218 29.7065 47.9804 32.5445 47.9815H32.5509C41.2679 47.9815 48.3627 40.8866 48.3662 32.166C48.3678 27.94 46.7243 23.9665 43.7383 20.9771C40.7524 17.9876 36.7814 16.3405 32.5571 16.339C23.8334 16.339 16.7385 23.4332 16.735 32.1532C16.7338 35.1416 17.5699 38.0519 19.1531 40.5699L19.5291 41.1683L17.9314 47.0045L23.9173 45.4343ZM41.486 36.264C41.8176 36.4243 42.0416 36.5325 42.1372 36.6921C42.256 36.8903 42.256 37.8423 41.86 38.9531C41.4636 40.0636 39.5642 41.0772 38.6507 41.2137C37.8316 41.3362 36.795 41.3872 35.6561 41.0253C34.9655 40.8062 34.08 40.5137 32.9456 40.0238C28.4884 38.0991 25.4762 33.7791 24.9069 32.9626C24.867 32.9054 24.8391 32.8654 24.8235 32.8446L24.8197 32.8395C24.5681 32.5038 22.8822 30.2544 22.8822 27.9263C22.8822 25.7362 23.9579 24.5883 24.4531 24.0599C24.4871 24.0237 24.5183 23.9904 24.5462 23.9599C24.982 23.4839 25.4971 23.3649 25.8141 23.3649C26.131 23.3649 26.4483 23.3679 26.7253 23.3818C26.7595 23.3835 26.795 23.3833 26.8318 23.3831C27.1089 23.3814 27.4543 23.3794 27.795 24.1979C27.9261 24.5129 28.118 24.9799 28.3203 25.4724C28.7294 26.4684 29.1814 27.5689 29.2609 27.7282C29.3798 27.9662 29.459 28.2437 29.3006 28.5612C29.2768 28.6088 29.2548 28.6537 29.2338 28.6966C29.1147 28.9396 29.0272 29.1184 28.8251 29.3543C28.7457 29.447 28.6636 29.547 28.5815 29.647C28.4179 29.8462 28.2544 30.0454 28.112 30.1873C27.8739 30.4244 27.6262 30.6816 27.9035 31.1576C28.1808 31.6336 29.135 33.1905 30.5485 34.4512C32.0678 35.8064 33.3884 36.3792 34.0577 36.6696C34.1884 36.7263 34.2943 36.7722 34.372 36.8111C34.8472 37.0491 35.1246 37.0093 35.402 36.6921C35.6793 36.3748 36.5905 35.3037 36.9074 34.8278C37.2243 34.352 37.5414 34.4313 37.9771 34.5899C38.413 34.7487 40.7506 35.8987 41.226 36.1367C41.3188 36.1832 41.4056 36.2251 41.486 36.264Z" fill="#FDFDFD"/>
</svg>
